STARTFONT 2.1
FONT -FontForge-Permanent Marker-Book-R-Normal--20-200-72-72-P-116-ISO10646-1
SIZE 20 72 72
FONTBOUNDINGBOX 31 28 -6 -6
COMMENT "Generated by fontforge, http://fontforge.sourceforge.net"
COMMENT "Copyright (c) 2010 by Font Diner, Inc. All rights reserved."
STARTPROPERTIES 39
FOUNDRY "FontForge"
FAMILY_NAME "Permanent Marker"
WEIGHT_NAME "Book"
SLANT "R"
SETWIDTH_NAME "Normal"
ADD_STYLE_NAME ""
PIXEL_SIZE 20
POINT_SIZE 200
RESOLUTION_X 72
RESOLUTION_Y 72
SPACING "P"
AVERAGE_WIDTH 116
CHARSET_REGISTRY "ISO10646"
CHARSET_ENCODING "1"
FONTNAME_REGISTRY ""
CHARSET_COLLECTIONS "ISO10646-1"
FONT_NAME "PermanentMarker-Regular"
FACE_NAME "Permanent Marker Regular"
COPYRIGHT "Copyright (c) 2010 by Font Diner, Inc. All rights reserved."
FONT_VERSION "1.001"
FONT_ASCENT 16
FONT_DESCENT 4
UNDERLINE_POSITION -2
UNDERLINE_THICKNESS 1
X_HEIGHT 11
CAP_HEIGHT 13
RAW_ASCENT 799
RAW_DESCENT 200
NORM_SPACE 7
RELATIVE_WEIGHT 40
RELATIVE_SETWIDTH 50
SUPERSCRIPT_X 0
SUPERSCRIPT_Y 9
SUPERSCRIPT_SIZE 12
SUBSCRIPT_X 0
SUBSCRIPT_Y 2
SUBSCRIPT_SIZE 12
AVG_LOWERCASE_WIDTH 114
AVG_UPPERCASE_WIDTH 136
ENDPROPERTIES
CHARS 230
STARTCHAR space
ENCODING 32
SWIDTH 370 0
DWIDTH 7 0
BBX 1 1 0 0
BITMAP
00
ENDCHAR
STARTCHAR exclam
ENCODING 33
SWIDTH 260 0
DWIDTH 5 0
BBX 5 16 0 -1
BITMAP
08
18
18
38
38
38
38
38
70
70
00
00
60
F0
E0
40
ENDCHAR
STARTCHAR quotedbl
ENCODING 34
SWIDTH 492 0
DWIDTH 10 0
BBX 9 10 2 5
BITMAP
6200
7380
F700
E700
E700
EE00
EE00
CE00
CE00
4400
ENDCHAR
STARTCHAR numbersign
ENCODING 35
SWIDTH 703 0
DWIDTH 14 0
BBX 13 14 1 0
BITMAP
0460
0E60
0E70
0FF0
7FF8
FFF0
19C0
39C0
FFF0
FFE0
F380
7780
E700
6700
ENDCHAR
STARTCHAR dollar
ENCODING 36
SWIDTH 493 0
DWIDTH 10 0
BBX 10 15 1 0
BITMAP
0200
0600
0600
0F80
7FC0
FDC0
F800
FC00
0E00
0600
0E00
FC00
F800
7000
3000
ENDCHAR
STARTCHAR percent
ENCODING 37
SWIDTH 643 0
DWIDTH 13 0
BBX 12 14 1 0
BITMAP
1810
3830
7870
DCE0
FDC0
FB80
0700
0E80
1DC0
7BC0
77E0
E7E0
E7C0
C300
ENDCHAR
STARTCHAR ampersand
ENCODING 38
SWIDTH 599 0
DWIDTH 12 0
BBX 12 10 0 1
BITMAP
0300
0300
3700
7F80
FFE0
FFF0
7F00
0E00
0E00
0E00
ENDCHAR
STARTCHAR quotesingle
ENCODING 39
SWIDTH 265 0
DWIDTH 5 0
BBX 4 10 2 5
BITMAP
60
70
F0
E0
E0
E0
E0
C0
C0
40
ENDCHAR
STARTCHAR parenleft
ENCODING 40
SWIDTH 361 0
DWIDTH 7 0
BBX 8 21 1 -4
BITMAP
01
03
0F
0F
1E
3C
78
70
70
F0
E0
E0
E0
E0
E0
E0
E0
E0
60
20
10
ENDCHAR
STARTCHAR parenright
ENCODING 41
SWIDTH 361 0
DWIDTH 7 0
BBX 8 21 -2 -4
BITMAP
0C
06
07
07
07
07
07
07
07
07
07
0F
0E
1E
1E
3C
78
F0
E0
C0
80
ENDCHAR
STARTCHAR asterisk
ENCODING 42
SWIDTH 673 0
DWIDTH 13 0
BBX 13 10 1 5
BITMAP
0820
1CE0
1FC0
0F80
7FF0
FFF8
7F80
0FC0
1DC0
3CC0
ENDCHAR
STARTCHAR plus
ENCODING 43
SWIDTH 579 0
DWIDTH 12 0
BBX 11 11 0 0
BITMAP
0200
0600
0E00
0E00
3F80
FFE0
7FC0
1E00
1C00
1C00
0800
ENDCHAR
STARTCHAR comma
ENCODING 44
SWIDTH 204 0
DWIDTH 4 0
BBX 4 7 -2 -4
BITMAP
20
70
70
70
F0
E0
40
ENDCHAR
STARTCHAR hyphen
ENCODING 45
SWIDTH 609 0
DWIDTH 12 0
BBX 11 3 0 4
BITMAP
1F80
FFE0
7FC0
ENDCHAR
STARTCHAR period
ENCODING 46
SWIDTH 228 0
DWIDTH 5 0
BBX 4 4 -1 -1
BITMAP
70
F0
70
40
ENDCHAR
STARTCHAR slash
ENCODING 47
SWIDTH 401 0
DWIDTH 8 0
BBX 11 14 -1 0
BITMAP
0040
00E0
01C0
03C0
0380
0700
0E00
1C00
3800
7800
7000
E000
E000
E000
ENDCHAR
STARTCHAR zero
ENCODING 48
SWIDTH 686 0
DWIDTH 14 0
BBX 13 15 0 0
BITMAP
00C0
03E0
07E0
0FE0
1FE0
1FE0
3C70
7870
7830
7038
F078
F1F8
FFF0
7FE0
3F80
ENDCHAR
STARTCHAR one
ENCODING 49
SWIDTH 322 0
DWIDTH 6 0
BBX 5 15 0 0
BITMAP
20
30
38
38
38
38
38
38
38
78
78
70
F0
70
60
ENDCHAR
STARTCHAR two
ENCODING 50
SWIDTH 650 0
DWIDTH 13 0
BBX 13 15 1 0
BITMAP
0C00
7F80
FFC0
FFE0
21E0
03E0
0FC0
1F80
3E00
7C00
F830
FFF8
FFF8
FFF0
7E00
ENDCHAR
STARTCHAR three
ENCODING 51
SWIDTH 561 0
DWIDTH 11 0
BBX 11 14 0 0
BITMAP
3FC0
FFE0
FFE0
FFC0
1F80
3E00
3F80
1FC0
07C0
01C0
7FC0
7FC0
FF80
7C00
ENDCHAR
STARTCHAR four
ENCODING 52
SWIDTH 582 0
DWIDTH 12 0
BBX 10 16 1 -1
BITMAP
0300
0300
C380
C300
E300
E3C0
FFC0
7FC0
7F80
1E00
0E00
0E00
0C00
0E00
0E00
0400
ENDCHAR
STARTCHAR five
ENCODING 53
SWIDTH 580 0
DWIDTH 12 0
BBX 12 14 1 0
BITMAP
1C00
3FF0
7FF0
FFF0
FF00
F800
7E00
3F00
0F00
0380
FF80
FF80
7F00
3C00
ENDCHAR
STARTCHAR six
ENCODING 54
SWIDTH 500 0
DWIDTH 10 0
BBX 9 15 0 0
BITMAP
0200
0E00
1F00
1F00
3C00
3800
7000
7200
FF80
EF80
FF80
FF80
FF80
FF00
FC00
ENDCHAR
STARTCHAR seven
ENCODING 55
SWIDTH 576 0
DWIDTH 12 0
BBX 13 14 0 0
BITMAP
7F00
FF80
FFC0
03C0
01C0
01C0
07F0
3FF8
7FF0
3F00
0E00
0E00
1C00
0C00
ENDCHAR
STARTCHAR eight
ENCODING 56
SWIDTH 537 0
DWIDTH 11 0
BBX 11 15 1 0
BITMAP
0800
3EC0
7EC0
FEE0
E7E0
E3C0
7F80
7F00
7C00
7E00
6E00
6600
7E00
7E00
3C00
ENDCHAR
STARTCHAR nine
ENCODING 57
SWIDTH 529 0
DWIDTH 11 0
BBX 10 15 1 0
BITMAP
0600
1F00
3F00
7F80
F380
FFC0
FFC0
FF80
2300
0700
0700
0700
0600
0600
0600
ENDCHAR
STARTCHAR colon
ENCODING 58
SWIDTH 241 0
DWIDTH 5 0
BBX 5 10 -1 -1
BITMAP
30
38
38
30
00
00
70
F0
70
40
ENDCHAR
STARTCHAR semicolon
ENCODING 59
SWIDTH 245 0
DWIDTH 5 0
BBX 6 13 -2 -4
BITMAP
18
1C
1C
18
00
00
30
38
38
78
70
F0
20
ENDCHAR
STARTCHAR less
ENCODING 60
SWIDTH 625 0
DWIDTH 13 0
BBX 12 10 0 0
BITMAP
0020
00F0
03F0
1FC0
FF00
F800
7F00
1FC0
03E0
0040
ENDCHAR
STARTCHAR equal
ENCODING 61
SWIDTH 586 0
DWIDTH 12 0
BBX 11 7 0 2
BITMAP
3FC0
7FE0
7F80
0000
7F80
FFC0
FC00
ENDCHAR
STARTCHAR greater
ENCODING 62
SWIDTH 634 0
DWIDTH 13 0
BBX 13 9 -1 1
BITMAP
2000
3E00
1F80
0FE0
01F0
07F8
3FC0
FE00
F000
ENDCHAR
STARTCHAR question
ENCODING 63
SWIDTH 556 0
DWIDTH 11 0
BBX 11 16 1 -1
BITMAP
1E00
7FE0
7FE0
7FE0
01E0
03E0
0FC0
1F00
3E00
3800
3000
0000
E000
E000
E000
4000
ENDCHAR
STARTCHAR at
ENCODING 64
SWIDTH 732 0
DWIDTH 15 0
BBX 14 15 0 0
BITMAP
01C0
01E0
01F0
07B8
0F18
1C7C
79EC
77CC
EECC
EECC
CFF8
C7F0
F000
7FF0
1FF0
ENDCHAR
STARTCHAR A
ENCODING 65
SWIDTH 702 0
DWIDTH 14 0
BBX 15 15 -1 0
BITMAP
0080
00E0
01E0
07F0
0FF0
0FF0
0F70
1E70
1C7E
3FFE
3BF8
7BF8
703C
F078
6030
ENDCHAR
STARTCHAR B
ENCODING 66
SWIDTH 686 0
DWIDTH 14 0
BBX 14 15 -1 0
BITMAP
01E0
3FF0
7FF8
FE3C
7C78
2FF8
0FF0
0FE0
1FF8
1E1C
1C3C
3CFC
3FF8
3FF0
1FC0
ENDCHAR
STARTCHAR C
ENCODING 67
SWIDTH 611 0
DWIDTH 12 0
BBX 12 14 0 0
BITMAP
01E0
03F0
0FF0
1FE0
7F00
7C00
F800
F000
E000
E000
7C00
7FE0
3FE0
0FC0
ENDCHAR
STARTCHAR D
ENCODING 68
SWIDTH 588 0
DWIDTH 12 0
BBX 11 15 0 0
BITMAP
4000
7000
7E00
7F00
7780
71C0
30E0
3060
70E0
71E0
77E0
FF80
FF00
FC00
7000
ENDCHAR
STARTCHAR E
ENCODING 69
SWIDTH 626 0
DWIDTH 13 0
BBX 13 14 0 0
BITMAP
03F8
3FF8
7FF0
3F00
3800
3FC0
3FE0
7FC0
7B00
F000
E1E0
FFF0
7FE0
7FC0
ENDCHAR
STARTCHAR F
ENCODING 70
SWIDTH 575 0
DWIDTH 12 0
BBX 14 15 0 0
BITMAP
0070
07FC
3FFC
7FC0
7C00
3C00
1C00
7DC0
FFE0
FFC0
FE00
7000
E000
E000
6000
ENDCHAR
STARTCHAR G
ENCODING 71
SWIDTH 789 0
DWIDTH 16 0
BBX 17 15 0 0
BITMAP
004000
00F000
01F000
07F800
0FE000
1F8000
3E1000
7C7C00
783E00
F03F00
E03F80
FFFF00
FFFE00
7FF000
3F0000
ENDCHAR
STARTCHAR H
ENCODING 72
SWIDTH 695 0
DWIDTH 14 0
BBX 14 15 0 0
BITMAP
0010
1030
3038
3838
3838
3838
383C
7878
7FF8
7FF8
7FF0
FEF0
F8F0
F0F0
E060
ENDCHAR
STARTCHAR I
ENCODING 73
SWIDTH 515 0
DWIDTH 10 0
BBX 14 15 -1 0
BITMAP
0040
1FF8
1FFC
0FE0
03C0
0380
0380
0380
0700
0700
0F00
0E00
FFC0
FFC0
7E00
ENDCHAR
STARTCHAR J
ENCODING 74
SWIDTH 668 0
DWIDTH 13 0
BBX 16 14 0 0
BITMAP
1FFE
7FFF
7FFF
38E0
00E0
00E0
01E0
01C0
01C0
03C0
C780
FF80
FF00
7E00
ENDCHAR
STARTCHAR K
ENCODING 75
SWIDTH 776 0
DWIDTH 16 0
BBX 16 15 0 0
BITMAP
0800
0E08
1E1C
1E7E
1CFC
3DF8
3FE0
7FC0
7F80
7F80
7FF2
FDFF
F87F
703E
6000
ENDCHAR
STARTCHAR L
ENCODING 76
SWIDTH 632 0
DWIDTH 13 0
BBX 12 15 0 0
BITMAP
1000
1C00
1E00
1C00
3C00
3C00
3800
7800
7800
7000
F000
FFC0
FFF0
7FF0
7E20
ENDCHAR
STARTCHAR M
ENCODING 77
SWIDTH 973 0
DWIDTH 19 0
BBX 19 15 0 0
BITMAP
020000
0700C0
0F81E0
0F83E0
1F87E0
1F9FE0
3FFFE0
3FFFE0
7BFDC0
7BF1C0
F883C0
F003C0
F003C0
E00380
600100
ENDCHAR
STARTCHAR N
ENCODING 78
SWIDTH 684 0
DWIDTH 14 0
BBX 14 15 0 0
BITMAP
0010
0E18
0F1C
1F3C
1F3C
3E38
3E38
7E78
7E78
7EF8
FFF0
F7F0
F3E0
E1C0
6080
ENDCHAR
STARTCHAR O
ENCODING 79
SWIDTH 744 0
DWIDTH 15 0
BBX 14 15 0 0
BITMAP
0040
01E0
03F0
07E0
0FF0
1FF0
3E38
7C38
781C
F01C
E03C
F1FC
FFF8
7FF0
3F80
ENDCHAR
STARTCHAR P
ENCODING 80
SWIDTH 639 0
DWIDTH 13 0
BBX 12 15 1 0
BITMAP
0380
0FE0
1FF0
3FF0
3CF0
78F0
FFF0
FFF0
FFE0
FF00
F000
F000
F000
E000
E000
ENDCHAR
STARTCHAR Q
ENCODING 81
SWIDTH 744 0
DWIDTH 15 0
BBX 14 16 0 -1
BITMAP
00C0
01E0
01F0
03F8
07F8
1F9C
3E1C
7C0C
F9DC
F1FC
E0FC
E3F8
FFF8
FFF8
3F38
0018
ENDCHAR
STARTCHAR R
ENCODING 82
SWIDTH 646 0
DWIDTH 13 0
BBX 13 16 0 -1
BITMAP
0100
0380
07C0
0FE0
3FE0
3CF0
78F0
7FF0
7FE0
7F80
7C00
FF00
FFF0
67F8
61F8
0030
ENDCHAR
STARTCHAR S
ENCODING 83
SWIDTH 576 0
DWIDTH 12 0
BBX 14 15 0 0
BITMAP
0060
07F8
3FF8
7FFC
FC00
FE00
FF80
3F80
01C0
01C0
03C0
0F80
7F80
7F00
7C00
ENDCHAR
STARTCHAR T
ENCODING 84
SWIDTH 607 0
DWIDTH 12 0
BBX 16 15 0 0
BITMAP
001C
FFFE
FFFF
FFFC
7F80
0700
0F00
0F00
0E00
1E00
1C00
1C00
1C00
1C00
1E00
ENDCHAR
STARTCHAR U
ENCODING 85
SWIDTH 695 0
DWIDTH 14 0
BBX 13 15 1 0
BITMAP
0010
0018
4038
6038
F038
F038
F078
E078
E0F0
E1F0
FFE0
FFC0
7F80
7F00
3C00
ENDCHAR
STARTCHAR V
ENCODING 86
SWIDTH 583 0
DWIDTH 12 0
BBX 12 15 1 0
BITMAP
0020
C070
E0F0
F1F0
F1E0
73C0
F7C0
7780
7F00
7E00
7E00
7C00
7C00
3800
3800
ENDCHAR
STARTCHAR W
ENCODING 87
SWIDTH 994 0
DWIDTH 20 0
BBX 21 15 0 0
BITMAP
000020
180030
1C1078
3C3878
3C7C78
3878F0
78F8F0
78F9E0
71F9E0
73FBC0
77FFC0
FFBF80
7F1F80
7E1F00
180E00
ENDCHAR
STARTCHAR X
ENCODING 88
SWIDTH 623 0
DWIDTH 12 0
BBX 14 15 0 -1
BITMAP
3018
3838
7CFC
3FF8
1FE0
0FC0
0F80
3F80
3F80
7BC0
F1E0
E1E0
E0E0
C040
4000
ENDCHAR
STARTCHAR Y
ENCODING 89
SWIDTH 493 0
DWIDTH 10 0
BBX 11 16 1 -1
BITMAP
8040
E1E0
E3E0
F3C0
F780
7F80
7F00
7E00
3C00
3C00
7800
7800
F000
E000
E000
4000
ENDCHAR
STARTCHAR Z
ENCODING 90
SWIDTH 664 0
DWIDTH 13 0
BBX 14 15 0 -1
BITMAP
1FF8
1FFC
1FFC
00F8
01F0
07E0
0FC0
1F00
7E00
F820
F1F0
FFF0
FFE0
7F80
3800
ENDCHAR
STARTCHAR bracketleft
ENCODING 91
SWIDTH 387 0
DWIDTH 8 0
BBX 15 21 -1 -3
BITMAP
07FC
07FE
07FE
0700
0700
0E00
0E00
0E00
0E00
1C00
1C00
1C00
3C00
3800
3800
3800
7000
7000
7F80
FFC0
7E00
ENDCHAR
STARTCHAR backslash
ENCODING 92
SWIDTH 352 0
DWIDTH 7 0
BBX 5 15 1 0
BITMAP
80
E0
E0
E0
60
60
60
70
70
30
30
30
38
38
38
ENDCHAR
STARTCHAR bracketright
ENCODING 93
SWIDTH 403 0
DWIDTH 8 0
BBX 14 21 -6 -3
BITMAP
07FC
07FC
07FC
001C
001C
0018
0038
0038
0038
0070
0070
0070
0070
00E0
00E0
00E0
01E0
01C0
7FC0
FFC0
7E00
ENDCHAR
STARTCHAR asciicircum
ENCODING 94
SWIDTH 518 0
DWIDTH 10 0
BBX 9 12 0 3
BITMAP
0200
0700
0700
0F80
0F80
1F80
3B80
7B80
7180
E180
E080
4000
ENDCHAR
STARTCHAR underscore
ENCODING 95
SWIDTH 708 0
DWIDTH 14 0
BBX 16 3 -2 -1
BITMAP
FFFE
FFFF
7000
ENDCHAR
STARTCHAR grave
ENCODING 96
SWIDTH 754 0
DWIDTH 15 0
BBX 6 6 6 9
BITMAP
40
E0
F0
78
3C
1C
ENDCHAR
STARTCHAR a
ENCODING 97
SWIDTH 581 0
DWIDTH 12 0
BBX 13 12 -1 0
BITMAP
0180
03C0
0FC0
0FC0
1FC0
1CC0
3CF0
3FF8
77E0
7660
F1E0
60E0
ENDCHAR
STARTCHAR b
ENCODING 98
SWIDTH 573 0
DWIDTH 11 0
BBX 12 12 -1 0
BITMAP
1FC0
7FE0
FCE0
69E0
1FC0
1F80
1FC0
1C60
3870
3BF0
3FE0
3F80
ENDCHAR
STARTCHAR c
ENCODING 99
SWIDTH 513 0
DWIDTH 10 0
BBX 10 12 0 0
BITMAP
0180
07C0
1FC0
3F80
7C00
F000
E000
E000
E000
7F80
7F80
1F80
ENDCHAR
STARTCHAR d
ENCODING 100
SWIDTH 497 0
DWIDTH 10 0
BBX 10 12 0 0
BITMAP
6000
7800
7E00
6F00
6380
6180
61C0
6380
6F80
FF00
FC00
6000
ENDCHAR
STARTCHAR e
ENCODING 101
SWIDTH 521 0
DWIDTH 10 0
BBX 11 12 0 0
BITMAP
03C0
3FE0
7FC0
7E00
3800
3F80
7F80
7600
E000
FFC0
FFC0
7F80
ENDCHAR
STARTCHAR f
ENCODING 102
SWIDTH 455 0
DWIDTH 9 0
BBX 12 12 0 0
BITMAP
03E0
3FF0
7F80
7800
3800
3800
FF80
FF80
F800
E000
E000
6000
ENDCHAR
STARTCHAR g
ENCODING 103
SWIDTH 652 0
DWIDTH 13 0
BBX 14 12 0 0
BITMAP
0080
03C0
0FC0
1F80
3E00
7CE0
70F0
F078
E0FC
FFF8
7FE0
7F00
ENDCHAR
STARTCHAR h
ENCODING 104
SWIDTH 582 0
DWIDTH 12 0
BBX 11 12 0 0
BITMAP
2040
30C0
30E0
70E0
70E0
70E0
77E0
7FE0
FFC0
F9C0
F1C0
E180
ENDCHAR
STARTCHAR i
ENCODING 105
SWIDTH 320 0
DWIDTH 6 0
BBX 4 12 1 0
BITMAP
30
30
70
70
70
70
E0
E0
E0
E0
E0
60
ENDCHAR
STARTCHAR j
ENCODING 106
SWIDTH 534 0
DWIDTH 11 0
BBX 13 12 0 0
BITMAP
07F0
7FF8
7FF8
2180
0380
0380
0380
0300
0700
FF00
FE00
FC00
ENDCHAR
STARTCHAR k
ENCODING 107
SWIDTH 645 0
DWIDTH 13 0
BBX 13 12 0 0
BITMAP
1800
1C70
3CF8
39F0
3FC0
7F80
7F00
7F00
7FF0
F3F8
F0F8
6000
ENDCHAR
STARTCHAR l
ENCODING 108
SWIDTH 533 0
DWIDTH 11 0
BBX 10 12 0 0
BITMAP
1800
1C00
3800
3800
3800
7000
7000
7000
E000
FFC0
FFC0
7FC0
ENDCHAR
STARTCHAR m
ENCODING 109
SWIDTH 814 0
DWIDTH 16 0
BBX 16 12 0 0
BITMAP
0C04
0E06
1F0F
3F3F
3F7F
3FFF
7FF6
77CE
F00E
E00E
E00E
C00C
ENDCHAR
STARTCHAR n
ENCODING 110
SWIDTH 564 0
DWIDTH 11 0
BBX 12 12 0 0
BITMAP
0840
1C60
1EF0
3CE0
3CE0
7CE0
7CE0
FDE0
FFC0
EFC0
E780
6300
ENDCHAR
STARTCHAR o
ENCODING 111
SWIDTH 628 0
DWIDTH 13 0
BBX 12 12 0 0
BITMAP
0380
03C0
0FC0
1FC0
3DE0
78E0
7060
E070
E0F0
FFF0
7FE0
7F00
ENDCHAR
STARTCHAR p
ENCODING 112
SWIDTH 524 0
DWIDTH 10 0
BBX 10 12 1 0
BITMAP
1F00
3F80
3FC0
71C0
F3C0
FFC0
FF80
FE00
E000
E000
E000
C000
ENDCHAR
STARTCHAR q
ENCODING 113
SWIDTH 625 0
DWIDTH 13 0
BBX 12 13 0 -1
BITMAP
0380
03C0
07C0
0FE0
3E70
7830
7370
E3F0
E1E0
DFE0
FFE0
7EE0
0060
ENDCHAR
STARTCHAR r
ENCODING 114
SWIDTH 541 0
DWIDTH 11 0
BBX 11 13 0 -1
BITMAP
0600
0F00
1F80
3FC0
79C0
77C0
7F80
7E00
7800
FE00
EFE0
67E0
00C0
ENDCHAR
STARTCHAR s
ENCODING 115
SWIDTH 463 0
DWIDTH 9 0
BBX 11 12 0 0
BITMAP
03C0
1FE0
7FE0
F800
FE00
7E00
0700
0300
0700
1F00
7E00
7800
ENDCHAR
STARTCHAR t
ENCODING 116
SWIDTH 479 0
DWIDTH 10 0
BBX 13 12 0 0
BITMAP
07F0
FFF8
FFF0
6E00
0E00
0E00
1C00
1C00
1800
3800
1800
1800
ENDCHAR
STARTCHAR u
ENCODING 117
SWIDTH 584 0
DWIDTH 12 0
BBX 11 12 1 0
BITMAP
0040
4060
6060
E0E0
E0E0
E1E0
E1C0
E7C0
FF80
FF00
7E00
7800
ENDCHAR
STARTCHAR v
ENCODING 118
SWIDTH 485 0
DWIDTH 10 0
BBX 10 12 1 0
BITMAP
40C0
E1C0
E3C0
E380
E700
EF00
7E00
7C00
7C00
7800
7000
3000
ENDCHAR
STARTCHAR w
ENCODING 119
SWIDTH 825 0
DWIDTH 17 0
BBX 18 12 0 0
BITMAP
100100
384180
38E3C0
38E380
71E380
71E700
73E700
77EE00
EFFE00
7F7C00
7E7C00
383800
ENDCHAR
STARTCHAR x
ENCODING 120
SWIDTH 506 0
DWIDTH 10 0
BBX 11 13 0 -1
BITMAP
2020
70E0
79E0
3FC0
1F80
1E00
3E00
7F00
F780
E380
C380
C180
8000
ENDCHAR
STARTCHAR y
ENCODING 121
SWIDTH 400 0
DWIDTH 8 0
BBX 9 13 1 -1
BITMAP
C300
E780
E780
EF00
7E00
7C00
7800
7800
7000
F000
E000
E000
4000
ENDCHAR
STARTCHAR z
ENCODING 122
SWIDTH 547 0
DWIDTH 11 0
BBX 12 13 0 -1
BITMAP
3FE0
3FE0
1FF0
03E0
0780
0F00
3E00
7C00
F080
E7C0
FFC0
FF00
3000
ENDCHAR
STARTCHAR braceleft
ENCODING 123
SWIDTH 448 0
DWIDTH 9 0
BBX 16 21 0 -3
BITMAP
03FE
03FF
03FE
0380
0700
0700
0700
0F00
7E00
FC00
7800
7E00
1C00
1C00
1C00
3800
3800
3800
7FC0
7FC0
3F00
ENDCHAR
STARTCHAR bar
ENCODING 124
SWIDTH 332 0
DWIDTH 7 0
BBX 7 15 0 0
BITMAP
04
0C
0E
0C
1C
1C
18
38
38
30
70
70
E0
E0
E0
ENDCHAR
STARTCHAR braceright
ENCODING 125
SWIDTH 481 0
DWIDTH 10 0
BBX 15 21 -6 -3
BITMAP
07F8
07FC
07FC
001C
0018
0038
0038
0038
0078
007C
003E
003E
007E
00F0
00E0
00E0
01C0
01C0
FFC0
FF80
7E00
ENDCHAR
STARTCHAR asciitilde
ENCODING 126
SWIDTH 581 0
DWIDTH 12 0
BBX 11 4 0 4
BITMAP
3C60
7EE0
EFC0
C780
ENDCHAR
STARTCHAR uni00A0
ENCODING 160
SWIDTH 370 0
DWIDTH 7 0
BBX 1 1 0 0
BITMAP
00
ENDCHAR
STARTCHAR exclamdown
ENCODING 161
SWIDTH 260 0
DWIDTH 5 0
BBX 5 16 0 -1
BITMAP
10
38
38
10
00
20
70
70
70
E0
E0
E0
E0
E0
C0
80
ENDCHAR
STARTCHAR cent
ENCODING 162
SWIDTH 488 0
DWIDTH 10 0
BBX 9 15 0 0
BITMAP
0200
0600
0700
0780
0F80
3F00
7C00
F000
E000
E000
7F00
7F80
3F00
3800
3800
ENDCHAR
STARTCHAR sterling
ENCODING 163
SWIDTH 586 0
DWIDTH 12 0
BBX 12 12 0 1
BITMAP
03E0
0FF0
0FF0
1C00
1F00
FFC0
7F80
3800
38C0
FFC0
FFC0
3800
ENDCHAR
STARTCHAR currency
ENCODING 164
SWIDTH 509 0
DWIDTH 10 0
BBX 10 11 0 0
BITMAP
2480
3FC0
7FC0
3F00
7F00
7380
7F80
7F00
FF00
C300
4000
ENDCHAR
STARTCHAR yen
ENCODING 165
SWIDTH 563 0
DWIDTH 11 0
BBX 11 13 0 0
BITMAP
2040
38E0
19E0
39C0
1F80
1F80
7FC0
FFE0
7F80
1C00
3C00
3800
3800
ENDCHAR
STARTCHAR brokenbar
ENCODING 166
SWIDTH 301 0
DWIDTH 6 0
BBX 6 15 0 0
BITMAP
04
0C
0C
1C
1C
18
18
10
00
20
70
60
E0
E0
C0
ENDCHAR
STARTCHAR section
ENCODING 167
SWIDTH 630 0
DWIDTH 13 0
BBX 12 18 0 -2
BITMAP
01E0
1FF0
3FF0
3F20
3C00
3F80
3FC0
7FE0
7CF0
70F0
7FE0
3FC0
0FC0
03E0
43E0
FFE0
FFC0
7C00
ENDCHAR
STARTCHAR dieresis
ENCODING 168
SWIDTH 754 0
DWIDTH 15 0
BBX 9 4 4 11
BITMAP
2300
7380
F380
6100
ENDCHAR
STARTCHAR copyright
ENCODING 169
SWIDTH 614 0
DWIDTH 12 0
BBX 12 13 0 2
BITMAP
0100
0FC0
1E60
38B0
73B0
6E30
6C30
D830
CE30
6F60
60E0
3F80
0F00
ENDCHAR
STARTCHAR ordfeminine
ENCODING 170
SWIDTH 454 0
DWIDTH 9 0
BBX 9 9 0 4
BITMAP
0400
1E00
3E00
3E00
7780
7F80
FF00
E700
4600
ENDCHAR
STARTCHAR guillemotleft
ENCODING 171
SWIDTH 566 0
DWIDTH 11 0
BBX 11 9 0 0
BITMAP
0840
0C60
1DE0
7BC0
F700
E600
F780
7B80
18C0
ENDCHAR
STARTCHAR logicalnot
ENCODING 172
SWIDTH 698 0
DWIDTH 14 0
BBX 13 7 0 0
BITMAP
1FE0
FFF0
FFF8
0070
0070
00E0
0060
ENDCHAR
STARTCHAR sfthyphen
ENCODING 173
SWIDTH 608 0
DWIDTH 12 0
BBX 11 3 0 4
BITMAP
1F80
FFE0
7FC0
ENDCHAR
STARTCHAR registered
ENCODING 174
SWIDTH 624 0
DWIDTH 12 0
BBX 11 13 1 2
BITMAP
0200
1F80
3CC0
7360
6760
CDA0
DF20
DE60
DE60
D7E0
C1C0
7F80
1E00
ENDCHAR
STARTCHAR macron
ENCODING 175
SWIDTH 754 0
DWIDTH 15 0
BBX 7 3 5 12
BITMAP
7E
FE
FE
ENDCHAR
STARTCHAR degree
ENCODING 176
SWIDTH 284 0
DWIDTH 6 0
BBX 6 6 2 10
BITMAP
38
78
F8
DC
F8
F0
ENDCHAR
STARTCHAR plusminus
ENCODING 177
SWIDTH 559 0
DWIDTH 11 0
BBX 12 14 -1 0
BITMAP
0100
0380
0380
0380
3FE0
3FF0
3FE0
0700
0700
0600
0000
1F80
FFE0
7FC0
ENDCHAR
STARTCHAR twosuperior
ENCODING 178
SWIDTH 386 0
DWIDTH 8 0
BBX 8 7 1 7
BITMAP
FC
7E
1C
78
7E
FF
7C
ENDCHAR
STARTCHAR threesuperior
ENCODING 179
SWIDTH 366 0
DWIDTH 7 0
BBX 7 7 1 7
BITMAP
7C
FE
7C
3C
0E
3E
7C
ENDCHAR
STARTCHAR acute
ENCODING 180
SWIDTH 754 0
DWIDTH 15 0
BBX 6 6 6 9
BITMAP
08
38
7C
70
E0
C0
ENDCHAR
STARTCHAR mu
ENCODING 181
SWIDTH 569 0
DWIDTH 11 0
BBX 11 13 0 -2
BITMAP
0040
2060
2060
7060
70E0
70E0
71C0
7780
FF00
FE00
FC00
C000
C000
ENDCHAR
STARTCHAR paragraph
ENCODING 182
SWIDTH 729 0
DWIDTH 15 0
BBX 15 16 1 -1
BITMAP
00F8
1FFE
7FFE
FFB8
FBB8
E3B0
7370
7F70
1FF0
07F8
07F0
0EE0
0EE0
0EE0
0C70
0040
ENDCHAR
STARTCHAR periodcentered
ENCODING 183
SWIDTH 226 0
DWIDTH 5 0
BBX 3 3 1 6
BITMAP
C0
E0
E0
ENDCHAR
STARTCHAR cedilla
ENCODING 184
SWIDTH 754 0
DWIDTH 15 0
BBX 7 7 5 -6
BITMAP
18
30
38
3E
06
FE
7C
ENDCHAR
STARTCHAR onesuperior
ENCODING 185
SWIDTH 206 0
DWIDTH 4 0
BBX 4 7 1 7
BITMAP
60
60
70
60
60
E0
C0
ENDCHAR
STARTCHAR ordmasculine
ENCODING 186
SWIDTH 445 0
DWIDTH 9 0
BBX 9 9 0 4
BITMAP
0600
1E00
3E00
7F00
7700
E780
FF80
FF00
7C00
ENDCHAR
STARTCHAR guillemotright
ENCODING 187
SWIDTH 595 0
DWIDTH 12 0
BBX 11 9 0 0
BITMAP
8200
E300
7380
39C0
1CE0
3DE0
7380
E700
C600
ENDCHAR
STARTCHAR onequarter
ENCODING 188
SWIDTH 705 0
DWIDTH 14 0
BBX 12 15 1 0
BITMAP
0040
60C0
61C0
63C0
6380
E700
EE00
DC20
3F60
3B60
73F0
E3F0
E0C0
C0C0
C0C0
ENDCHAR
STARTCHAR onehalf
ENCODING 189
SWIDTH 750 0
DWIDTH 15 0
BBX 13 15 1 0
BITMAP
0040
60C0
61C0
63C0
6380
E700
EE00
DC00
3FE0
3BF0
70F0
E1E0
E3F8
C3F8
C3E0
ENDCHAR
STARTCHAR threequarters
ENCODING 190
SWIDTH 818 0
DWIDTH 16 0
BBX 14 15 1 0
BITMAP
0808
7C18
FE38
7878
3C70
7CE0
FDC0
7388
07DC
0ED8
1CFC
38FC
7030
7070
6030
ENDCHAR
STARTCHAR questiondown
ENCODING 191
SWIDTH 556 0
DWIDTH 11 0
BBX 11 16 -1 -1
BITMAP
0040
00E0
00E0
00E0
0000
0180
03C0
0F80
1F00
7E00
F800
F000
FFC0
FFE0
7FC0
0700
ENDCHAR
STARTCHAR Agrave
ENCODING 192
SWIDTH 702 0
DWIDTH 14 0
BBX 15 21 -1 0
BITMAP
0080
01C0
01E0
00F0
0078
0038
0080
00E0
01E0
07F0
0FF0
0FF0
0F70
1E70
1C7E
3FFE
3BF8
7BF8
703C
F078
6030
ENDCHAR
STARTCHAR Aacute
ENCODING 193
SWIDTH 702 0
DWIDTH 14 0
BBX 15 22 -1 0
BITMAP
0010
0038
0078
00F0
01E0
0180
0000
0080
00E0
01E0
07F0
0FF0
0FF0
0F70
1E70
1C7E
3FFE
3BF8
7BF8
703C
F078
6030
ENDCHAR
STARTCHAR Acircumflex
ENCODING 194
SWIDTH 702 0
DWIDTH 14 0
BBX 15 21 -1 0
BITMAP
0040
00E0
01F8
03BC
031C
0208
0080
00E0
01E0
07F0
0FF0
0FF0
0F70
1E70
1C7E
3FFE
3BF8
7BF8
703C
F078
6030
ENDCHAR
STARTCHAR Atilde
ENCODING 195
SWIDTH 702 0
DWIDTH 14 0
BBX 16 19 -1 0
BITMAP
00E7
01FE
03FE
033C
0080
00E0
01E0
07F0
0FF0
0FF0
0F70
1E70
1C7E
3FFE
3BF8
7BF8
703C
F078
6030
ENDCHAR
STARTCHAR Adieresis
ENCODING 196
SWIDTH 702 0
DWIDTH 14 0
BBX 15 19 -1 0
BITMAP
0108
039C
039C
0308
0080
00E0
01E0
07F0
0FF0
0FF0
0F70
1E70
1C7E
3FFE
3BF8
7BF8
703C
F078
6030
ENDCHAR
STARTCHAR Aring
ENCODING 197
SWIDTH 702 0
DWIDTH 14 0
BBX 15 19 -1 0
BITMAP
0030
0070
00F8
00D8
01F8
00F0
01E0
07F0
0FF0
0FF0
0F70
1E70
1C7E
3FFE
3BF8
7BF8
703C
F078
6030
ENDCHAR
STARTCHAR AE
ENCODING 198
SWIDTH 1153 0
DWIDTH 23 0
BBX 25 15 -1 0
BITMAP
00400000
00707F00
00F3FF80
03F7FF00
07F7F000
0FF78000
0F73F800
1E77FC00
3C7FFC00
3FFF6000
7FFE0000
77FE1C00
F07FFE00
E0FFFE00
C0E7F800
ENDCHAR
STARTCHAR Ccedilla
ENCODING 199
SWIDTH 611 0
DWIDTH 12 0
BBX 12 20 0 -6
BITMAP
01E0
03F0
0FF0
1FE0
7F00
7C00
F800
F000
E000
E000
7C00
7FE0
3FE0
0FC0
1C00
1C00
1F00
0300
7F00
3E00
ENDCHAR
STARTCHAR Egrave
ENCODING 200
SWIDTH 626 0
DWIDTH 13 0
BBX 13 22 0 0
BITMAP
0200
0700
0780
03C0
01E0
00E0
0000
0000
03F8
3FF8
7FF0
3F00
3800
3FC0
3FE0
7FC0
7B00
F000
E1E0
FFF0
7FE0
7FC0
ENDCHAR
STARTCHAR Eacute
ENCODING 201
SWIDTH 626 0
DWIDTH 13 0
BBX 13 21 0 0
BITMAP
0020
00E0
01F0
01C0
0380
0300
0000
03F8
3FF8
7FF0
3F00
3800
3FC0
3FE0
7FC0
7B00
F000
E1E0
FFF0
7FE0
7FC0
ENDCHAR
STARTCHAR Ecircumflex
ENCODING 202
SWIDTH 626 0
DWIDTH 13 0
BBX 13 21 0 0
BITMAP
0080
03C0
07E0
0F70
0E30
0420
0000
03F8
3FF8
7FF0
3F00
3800
3FC0
3FE0
7FC0
7B00
F000
E1E0
FFF0
7FE0
7FC0
ENDCHAR
STARTCHAR Edieresis
ENCODING 203
SWIDTH 626 0
DWIDTH 13 0
BBX 13 19 0 0
BITMAP
0420
0F78
0E70
0420
0000
03F8
3FF8
7FF0
3F00
3800
3FC0
3FE0
7FC0
7B00
F000
E1E0
FFF0
7FE0
7FC0
ENDCHAR
STARTCHAR Igrave
ENCODING 204
SWIDTH 515 0
DWIDTH 10 0
BBX 14 22 -1 0
BITMAP
0200
0780
07C0
03C0
00E0
0060
0000
0040
1FF8
1FFC
0FE0
03C0
0380
0380
0380
0700
0700
0F00
0E00
FFC0
FFC0
7E00
ENDCHAR
STARTCHAR Iacute
ENCODING 205
SWIDTH 515 0
DWIDTH 10 0
BBX 14 22 -1 0
BITMAP
0008
0038
007C
0070
00E0
00C0
0000
0040
1FF8
1FFC
0FE0
03C0
0380
0380
0380
0700
0700
0F00
0E00
FFC0
FFC0
7E00
ENDCHAR
STARTCHAR Icircumflex
ENCODING 206
SWIDTH 515 0
DWIDTH 10 0
BBX 14 22 -1 0
BITMAP
0040
00E0
01F0
07B8
0318
0208
0000
0040
1FF8
1FFC
0FE0
03C0
0380
0380
0380
0700
0700
0F00
0E00
FFC0
FFC0
7E00
ENDCHAR
STARTCHAR Idieresis
ENCODING 207
SWIDTH 515 0
DWIDTH 10 0
BBX 14 20 -1 0
BITMAP
0118
039C
079C
0308
0000
0040
1FF8
1FFC
0FE0
03C0
0380
0380
0380
0700
0700
0F00
0E00
FFC0
FFC0
7E00
ENDCHAR
STARTCHAR Eth
ENCODING 208
SWIDTH 656 0
DWIDTH 13 0
BBX 13 15 0 0
BITMAP
1000
1C00
1F00
3FC0
1BE0
18F0
FE30
FE38
FE38
B8F8
3BF0
3FE0
3F80
3E00
3800
ENDCHAR
STARTCHAR Ntilde
ENCODING 209
SWIDTH 684 0
DWIDTH 14 0
BBX 15 20 0 0
BITMAP
01E6
03FE
037C
0738
0000
0010
0E18
0F1C
1F3C
1F3C
3E38
3E38
7E78
7E78
7EF8
FFF0
F7F0
F3E0
E1C0
6080
ENDCHAR
STARTCHAR Ograve
ENCODING 210
SWIDTH 744 0
DWIDTH 15 0
BBX 14 21 0 0
BITMAP
00C0
00E0
01F0
0078
0038
0018
0040
01E0
03F0
07E0
0FF0
1FF0
3E38
7C38
781C
F01C
E03C
F1FC
FFF8
7FF0
3F80
ENDCHAR
STARTCHAR Oacute
ENCODING 211
SWIDTH 744 0
DWIDTH 15 0
BBX 14 21 0 0
BITMAP
0020
0070
00F0
01E0
03C0
0300
0040
01E0
03F0
07E0
0FF0
1FF0
3E38
7C38
781C
F01C
E03C
F1FC
FFF8
7FF0
3F80
ENDCHAR
STARTCHAR Ocircumflex
ENCODING 212
SWIDTH 744 0
DWIDTH 15 0
BBX 14 21 0 0
BITMAP
0040
00E0
01F8
03BC
031C
0208
0040
01E0
03F0
07E0
0FF0
1FF0
3E38
7C38
781C
F01C
E03C
F1FC
FFF8
7FF0
3F80
ENDCHAR
STARTCHAR Otilde
ENCODING 213
SWIDTH 744 0
DWIDTH 15 0
BBX 15 20 0 0
BITMAP
01E6
03FE
037C
0738
0000
0040
01E0
03F0
07E0
0FF0
1FF0
3E38
7C38
781C
F01C
E03C
F1FC
FFF8
7FF0
3F80
ENDCHAR
STARTCHAR Odieresis
ENCODING 214
SWIDTH 744 0
DWIDTH 15 0
BBX 14 19 0 0
BITMAP
0118
039C
079C
0308
0040
01E0
03F0
07E0
0FF0
1FF0
3E38
7C38
781C
F01C
E03C
F1FC
FFF8
7FF0
3F80
ENDCHAR
STARTCHAR multiply
ENCODING 215
SWIDTH 490 0
DWIDTH 10 0
BBX 10 10 0 0
BITMAP
7180
73C0
3F80
1E00
1C00
7E00
7600
E700
C300
C200
ENDCHAR
STARTCHAR Oslash
ENCODING 216
SWIDTH 744 0
DWIDTH 15 0
BBX 14 18 0 -3
BITMAP
0044
01EC
03FC
07FC
0FF8
1FF0
3EF8
7DF8
7BDC
F79C
E73C
FFFC
FFF8
7FF0
3F80
3800
3800
1000
ENDCHAR
STARTCHAR Ugrave
ENCODING 217
SWIDTH 695 0
DWIDTH 14 0
BBX 13 20 1 0
BITMAP
0800
1C00
1E00
0F00
0780
0190
0018
4038
6038
F038
F038
F078
E078
E0F0
E1F0
FFE0
FFC0
7F80
7F00
3C00
ENDCHAR
STARTCHAR Uacute
ENCODING 218
SWIDTH 695 0
DWIDTH 14 0
BBX 13 21 1 0
BITMAP
0020
00E0
01F0
01C0
0380
0300
0010
0018
4038
6038
F038
F038
F078
E078
E0F0
E1F0
FFE0
FFC0
7F80
7F00
3C00
ENDCHAR
STARTCHAR Ucircumflex
ENCODING 219
SWIDTH 695 0
DWIDTH 14 0
BBX 13 21 1 0
BITMAP
0100
0380
07C0
1EE0
0C60
0820
0010
0018
4038
6038
F038
F038
F078
E078
E0F0
E1F0
FFE0
FFC0
7F80
7F00
3C00
ENDCHAR
STARTCHAR Udieresis
ENCODING 220
SWIDTH 695 0
DWIDTH 14 0
BBX 13 19 1 0
BITMAP
0460
1C70
1E70
0820
0010
0018
4038
6038
F038
F038
F078
E078
E0F0
E1F0
FFE0
FFC0
7F80
7F00
3C00
ENDCHAR
STARTCHAR Yacute
ENCODING 221
SWIDTH 493 0
DWIDTH 10 0
BBX 11 23 1 -1
BITMAP
00C0
01C0
03E0
0780
0700
0600
0000
8040
E1E0
E3E0
F3C0
F780
7F80
7F00
7E00
3C00
3C00
7800
7800
F000
E000
E000
4000
ENDCHAR
STARTCHAR Thorn
ENCODING 222
SWIDTH 680 0
DWIDTH 14 0
BBX 13 15 1 0
BITMAP
1000
3000
7000
7F80
7FE0
7FF0
F0F8
F0F8
E3F0
EFE0
FF80
FE00
F000
E000
E000
ENDCHAR
STARTCHAR germandbls
ENCODING 223
SWIDTH 931 0
DWIDTH 19 0
BBX 21 12 0 0
BITMAP
03C1F0
1FEFF0
7FFFF8
F83C00
FE3F00
7E3F80
070180
0300C0
0703C0
1F0F80
7E3F00
783E00
ENDCHAR
STARTCHAR agrave
ENCODING 224
SWIDTH 581 0
DWIDTH 12 0
BBX 13 19 -1 0
BITMAP
0300
0380
07C0
01E0
00E0
0060
0000
0180
03C0
0FC0
0FC0
1FC0
1CC0
3CF0
3FF8
77E0
7660
F1E0
60E0
ENDCHAR
STARTCHAR aacute
ENCODING 225
SWIDTH 581 0
DWIDTH 12 0
BBX 13 19 -1 0
BITMAP
0040
00E0
01E0
03C0
0780
0300
0000
0180
03C0
0FC0
0FC0
1FC0
1CC0
3CF0
3FF8
77E0
7660
F1E0
60E0
ENDCHAR
STARTCHAR acircumflex
ENCODING 226
SWIDTH 581 0
DWIDTH 12 0
BBX 13 18 -1 0
BITMAP
0080
03C0
07E0
0F70
0E30
0410
0180
03C0
0FC0
0FC0
1FC0
1CC0
3CF0
3FF8
77E0
7660
F1E0
60E0
ENDCHAR
STARTCHAR atilde
ENCODING 227
SWIDTH 581 0
DWIDTH 12 0
BBX 14 17 -1 0
BITMAP
039C
07F8
0FF8
0CF0
0000
0180
03C0
0FC0
0FC0
1FC0
1CC0
3CF0
3FF8
77E0
7660
F1E0
60E0
ENDCHAR
STARTCHAR adieresis
ENCODING 228
SWIDTH 581 0
DWIDTH 12 0
BBX 13 17 -1 0
BITMAP
0230
0738
0F38
0610
0000
0180
03C0
0FC0
0FC0
1FC0
1CC0
3CF0
3FF8
77E0
7660
F1E0
60E0
ENDCHAR
STARTCHAR aring
ENCODING 229
SWIDTH 581 0
DWIDTH 12 0
BBX 13 17 -1 0
BITMAP
0040
00E0
01E0
03E0
0370
03E0
03C0
0FC0
0FC0
1FC0
1CC0
3CF0
3FF8
77E0
7660
F1E0
60E0
ENDCHAR
STARTCHAR ae
ENCODING 230
SWIDTH 948 0
DWIDTH 19 0
BBX 20 12 -1 0
BITMAP
0080F0
01CFF0
07DFF0
0FDF00
1FDC00
1DDFC0
39FFE0
7FFB00
7FF800
ECFFE0
E3FFF0
C1FFC0
ENDCHAR
STARTCHAR ccedilla
ENCODING 231
SWIDTH 513 0
DWIDTH 10 0
BBX 10 18 0 -6
BITMAP
0180
07C0
1FC0
3F80
7C00
F000
E000
E000
E000
7F80
7F80
1F80
1800
1C00
1E00
0700
7E00
3C00
ENDCHAR
STARTCHAR egrave
ENCODING 232
SWIDTH 521 0
DWIDTH 10 0
BBX 11 19 0 0
BITMAP
1800
1C00
3E00
0F00
0700
0300
0000
03C0
3FE0
7FC0
7E00
3800
3F80
7F80
7600
E000
FFC0
FFC0
7F80
ENDCHAR
STARTCHAR eacute
ENCODING 233
SWIDTH 521 0
DWIDTH 10 0
BBX 11 19 0 0
BITMAP
0080
01C0
03C0
0780
0F00
0C00
0000
03C0
3FE0
7FC0
7E00
3800
3F80
7F80
7600
E000
FFC0
FFC0
7F80
ENDCHAR
STARTCHAR ecircumflex
ENCODING 234
SWIDTH 521 0
DWIDTH 10 0
BBX 11 18 0 0
BITMAP
0100
0380
07C0
1EE0
1C60
0820
03C0
3FE0
7FC0
7E00
3800
3F80
7F80
7600
E000
FFC0
FFC0
7F80
ENDCHAR
STARTCHAR edieresis
ENCODING 235
SWIDTH 521 0
DWIDTH 10 0
BBX 12 17 0 0
BITMAP
0460
0E70
1E70
0C20
0000
03C0
3FE0
7FC0
7E00
3800
3F80
7F80
7600
E000
FFC0
FFC0
7F80
ENDCHAR
STARTCHAR igrave
ENCODING 236
SWIDTH 320 0
DWIDTH 6 0
BBX 7 19 1 0
BITMAP
20
70
78
3C
1E
0C
00
30
30
70
70
70
70
E0
E0
E0
E0
E0
60
ENDCHAR
STARTCHAR iacute
ENCODING 237
SWIDTH 320 0
DWIDTH 6 0
BBX 10 19 1 0
BITMAP
0180
0380
07C0
0F00
0E00
0C00
0000
3000
3000
7000
7000
7000
7000
E000
E000
E000
E000
E000
6000
ENDCHAR
STARTCHAR icircumflex
ENCODING 238
SWIDTH 320 0
DWIDTH 6 0
BBX 8 19 1 0
BITMAP
08
3C
7E
FF
E7
42
00
30
30
70
70
70
70
E0
E0
E0
E0
E0
60
ENDCHAR
STARTCHAR idieresis
ENCODING 239
SWIDTH 320 0
DWIDTH 6 0
BBX 8 17 1 0
BITMAP
42
E7
E7
C2
00
30
30
70
70
70
70
E0
E0
E0
E0
E0
60
ENDCHAR
STARTCHAR eth
ENCODING 240
SWIDTH 541 0
DWIDTH 11 0
BBX 12 12 -1 0
BITMAP
1800
1E00
1F80
1BC0
18E0
FE60
7E70
58E0
3FE0
3F80
3F00
3800
ENDCHAR
STARTCHAR ntilde
ENCODING 241
SWIDTH 564 0
DWIDTH 11 0
BBX 14 17 0 0
BITMAP
03CC
07FC
06F8
0C70
0000
0840
1C60
1EF0
3CE0
3CE0
7CE0
7CE0
FDE0
FFC0
EFC0
E780
6300
ENDCHAR
STARTCHAR ograve
ENCODING 242
SWIDTH 628 0
DWIDTH 13 0
BBX 12 19 0 0
BITMAP
0200
0780
07C0
03C0
00E0
0060
0000
0380
03C0
0FC0
1FC0
3DE0
78E0
7060
E070
E0F0
FFF0
7FE0
7F00
ENDCHAR
STARTCHAR oacute
ENCODING 243
SWIDTH 628 0
DWIDTH 13 0
BBX 12 19 0 0
BITMAP
0040
01C0
03E0
0380
0700
0600
0000
0380
03C0
0FC0
1FC0
3DE0
78E0
7060
E070
E0F0
FFF0
7FE0
7F00
ENDCHAR
STARTCHAR ocircumflex
ENCODING 244
SWIDTH 628 0
DWIDTH 13 0
BBX 12 19 0 0
BITMAP
0080
01C0
03E0
0F70
0630
0410
0000
0380
03C0
0FC0
1FC0
3DE0
78E0
7060
E070
E0F0
FFF0
7FE0
7F00
ENDCHAR
STARTCHAR otilde
ENCODING 245
SWIDTH 628 0
DWIDTH 13 0
BBX 14 17 0 0
BITMAP
03CC
07FC
06F8
0C70
0000
0380
03C0
0FC0
1FC0
3DE0
78E0
7060
E070
E0F0
FFF0
7FE0
7F00
ENDCHAR
STARTCHAR odieresis
ENCODING 246
SWIDTH 628 0
DWIDTH 13 0
BBX 13 17 0 0
BITMAP
0230
0738
0F38
0610
0000
0380
03C0
0FC0
1FC0
3DE0
78E0
7060
E070
E0F0
FFF0
7FE0
7F00
ENDCHAR
STARTCHAR divide
ENCODING 247
SWIDTH 559 0
DWIDTH 11 0
BBX 10 12 0 0
BITMAP
0400
0F00
0700
0600
0000
FFC0
FFC0
7F00
0000
1C00
1C00
1C00
ENDCHAR
STARTCHAR oslash
ENCODING 248
SWIDTH 632 0
DWIDTH 13 0
BBX 12 14 0 -2
BITMAP
03B0
03F0
0FF0
1FE0
3DE0
7BE0
77E0
E770
EEF0
FFF0
7FE0
7F80
3000
3000
ENDCHAR
STARTCHAR ugrave
ENCODING 249
SWIDTH 584 0
DWIDTH 12 0
BBX 11 19 1 0
BITMAP
0800
1C00
1E00
0F00
0780
0300
0000
0040
4060
6060
E0E0
E0E0
E1E0
E1C0
E7C0
FF80
FF00
7E00
7800
ENDCHAR
STARTCHAR uacute
ENCODING 250
SWIDTH 584 0
DWIDTH 12 0
BBX 11 18 1 0
BITMAP
00C0
01C0
03E0
0780
0700
0600
0040
4060
6060
E0E0
E0E0
E1E0
E1C0
E7C0
FF80
FF00
7E00
7800
ENDCHAR
STARTCHAR ucircumflex
ENCODING 251
SWIDTH 584 0
DWIDTH 12 0
BBX 11 19 1 0
BITMAP
0200
0700
0F80
1DE0
18C0
1040
0000
0040
4060
6060
E0E0
E0E0
E1E0
E1C0
E7C0
FF80
FF00
7E00
7800
ENDCHAR
STARTCHAR udieresis
ENCODING 252
SWIDTH 584 0
DWIDTH 12 0
BBX 11 17 1 0
BITMAP
08C0
1CE0
3CE0
1840
0000
0040
4060
6060
E0E0
E0E0
E1E0
E1C0
E7C0
FF80
FF00
7E00
7800
ENDCHAR
STARTCHAR yacute
ENCODING 253
SWIDTH 400 0
DWIDTH 8 0
BBX 10 21 1 -1
BITMAP
0080
01C0
03C0
0780
0F00
0C00
0000
0000
C300
E780
E780
EF00
7E00
7C00
7800
7800
7000
F000
E000
E000
4000
ENDCHAR
STARTCHAR thorn
ENCODING 254
SWIDTH 579 0
DWIDTH 12 0
BBX 11 12 1 0
BITMAP
6000
7000
FF00
7FC0
E1E0
E1E0
E7C0
FF80
FE00
F000
E000
C000
ENDCHAR
STARTCHAR ydieresis
ENCODING 255
SWIDTH 400 0
DWIDTH 8 0
BBX 10 19 1 -1
BITMAP
1080
39C0
39C0
3080
0000
0000
C300
E780
E780
EF00
7E00
7C00
7800
7800
7000
F000
E000
E000
4000
ENDCHAR
STARTCHAR dotlessi
ENCODING 305
SWIDTH 320 0
DWIDTH 6 0
BBX 4 12 1 0
BITMAP
30
30
70
70
70
70
E0
E0
E0
E0
E0
60
ENDCHAR
STARTCHAR Lslash
ENCODING 321
SWIDTH 632 0
DWIDTH 13 0
BBX 14 15 -2 0
BITMAP
0400
0700
0780
0700
0F00
0F80
1FC0
FF80
FE00
7C00
3C00
3FF0
3FFC
1FFC
1F88
ENDCHAR
STARTCHAR lslash
ENCODING 322
SWIDTH 533 0
DWIDTH 11 0
BBX 12 12 -2 0
BITMAP
0600
0700
0E00
0E00
0F80
3F80
FE00
FC00
3800
3FF0
3FF0
1FF0
ENDCHAR
STARTCHAR OE
ENCODING 338
SWIDTH 1212 0
DWIDTH 24 0
BBX 25 15 0 0
BITMAP
00400000
01E07F00
03F3FF80
07E7FF00
0FF7F000
1FF38000
3E3BF800
7C3FFE00
781FFC00
F01F5000
E03F0000
F1FE1E00
FFFFFF00
7FFFFE00
3F87F800
ENDCHAR
STARTCHAR oe
ENCODING 339
SWIDTH 1010 0
DWIDTH 20 0
BBX 21 12 0 0
BITMAP
0380F0
07CFF8
0FDFF0
1FDF00
3CEC00
78FFC0
707FE0
E07F00
E0F800
FFFFE0
7FFFF0
7F1FC0
ENDCHAR
STARTCHAR Scaron
ENCODING 352
SWIDTH 576 0
DWIDTH 12 0
BBX 14 22 0 0
BITMAP
0410
0630
0F70
07E0
03C0
0080
0000
0060
07F8
3FF8
7FFC
FC00
FE00
FF80
3F80
01C0
01C0
03C0
0F80
7F80
7F00
7C00
ENDCHAR
STARTCHAR scaron
ENCODING 353
SWIDTH 463 0
DWIDTH 9 0
BBX 11 20 0 0
BITMAP
1040
18C0
3DC0
1F80
0F00
0200
0000
0000
03C0
1FE0
7FE0
F800
FE00
7E00
0700
0300
0700
1F00
7E00
7800
ENDCHAR
STARTCHAR Ydieresis
ENCODING 376
SWIDTH 493 0
DWIDTH 10 0
BBX 11 21 1 -1
BITMAP
08C0
1CE0
3CE0
1840
0000
8040
E1E0
E3E0
F3C0
F780
7F80
7F00
7E00
3C00
3C00
7800
7800
F000
E000
E000
4000
ENDCHAR
STARTCHAR Zcaron
ENCODING 381
SWIDTH 664 0
DWIDTH 13 0
BBX 14 23 0 -1
BITMAP
0108
038C
039C
01F8
00F0
0060
0000
0000
1FF8
1FFC
1FFC
00F8
01F0
07E0
0FC0
1F00
7E00
F820
F1F0
FFF0
FFE0
7F80
3800
ENDCHAR
STARTCHAR zcaron
ENCODING 382
SWIDTH 547 0
DWIDTH 11 0
BBX 12 21 0 -1
BITMAP
0410
0630
0F70
07E0
03C0
0080
0000
0000
3FE0
3FE0
1FF0
03E0
0780
0F00
3E00
7C00
F080
E7C0
FFC0
FF00
3000
ENDCHAR
STARTCHAR circumflex
ENCODING 710
SWIDTH 754 0
DWIDTH 15 0
BBX 8 6 5 10
BITMAP
10
38
7E
EF
C7
82
ENDCHAR
STARTCHAR caron
ENCODING 711
SWIDTH 754 0
DWIDTH 15 0
BBX 8 6 5 10
BITMAP
82
C6
EF
7E
3C
18
ENDCHAR
STARTCHAR breve
ENCODING 728
SWIDTH 754 0
DWIDTH 15 0
BBX 8 5 5 11
BITMAP
82
C2
FF
FE
3C
ENDCHAR
STARTCHAR dotaccent
ENCODING 729
SWIDTH 754 0
DWIDTH 15 0
BBX 3 4 7 11
BITMAP
40
E0
E0
40
ENDCHAR
STARTCHAR ring
ENCODING 730
SWIDTH 754 0
DWIDTH 15 0
BBX 6 6 6 10
BITMAP
18
78
F8
DC
FC
F0
ENDCHAR
STARTCHAR ogonek
ENCODING 731
SWIDTH 754 0
DWIDTH 15 0
BBX 7 6 6 -5
BITMAP
40
C0
C0
C0
7E
3E
ENDCHAR
STARTCHAR tilde
ENCODING 732
SWIDTH 754 0
DWIDTH 15 0
BBX 10 4 4 11
BITMAP
39C0
7F80
FF80
CF00
ENDCHAR
STARTCHAR hungarumlaut
ENCODING 733
SWIDTH 754 0
DWIDTH 15 0
BBX 11 6 3 9
BITMAP
0840
1CE0
3DE0
7BC0
F780
C300
ENDCHAR
STARTCHAR endash
ENCODING 8211
SWIDTH 588 0
DWIDTH 12 0
BBX 11 3 0 4
BITMAP
3F80
FFE0
7FC0
ENDCHAR
STARTCHAR emdash
ENCODING 8212
SWIDTH 878 0
DWIDTH 18 0
BBX 16 3 0 4
BITMAP
7FFE
FFFF
7FFE
ENDCHAR
STARTCHAR quoteleft
ENCODING 8216
SWIDTH 203 0
DWIDTH 4 0
BBX 4 6 2 9
BITMAP
70
F0
F0
E0
E0
C0
ENDCHAR
STARTCHAR quoteright
ENCODING 8217
SWIDTH 199 0
DWIDTH 4 0
BBX 5 6 1 9
BITMAP
30
38
38
78
F0
60
ENDCHAR
STARTCHAR quotesinglbase
ENCODING 8218
SWIDTH 204 0
DWIDTH 4 0
BBX 4 7 -2 -4
BITMAP
20
70
70
70
F0
E0
40
ENDCHAR
STARTCHAR quotedblleft
ENCODING 8220
SWIDTH 410 0
DWIDTH 8 0
BBX 9 6 2 9
BITMAP
7700
F780
EF00
EE00
EE00
CE00
ENDCHAR
STARTCHAR quotedblright
ENCODING 8221
SWIDTH 425 0
DWIDTH 9 0
BBX 10 6 1 9
BITMAP
3180
3BC0
3B80
7B80
F700
6600
ENDCHAR
STARTCHAR quotedblbase
ENCODING 8222
SWIDTH 430 0
DWIDTH 9 0
BBX 9 7 -2 -4
BITMAP
2300
7380
7380
7780
F700
EE00
4400
ENDCHAR
STARTCHAR bullet
ENCODING 8226
SWIDTH 299 0
DWIDTH 6 0
BBX 4 4 1 4
BITMAP
E0
F0
F0
E0
ENDCHAR
STARTCHAR ellipsis
ENCODING 8230
SWIDTH 768 0
DWIDTH 15 0
BBX 15 4 -1 -1
BITMAP
718E
F39E
738C
4108
ENDCHAR
STARTCHAR perthousand
ENCODING 8240
SWIDTH 889 0
DWIDTH 18 0
BBX 17 14 1 0
BITMAP
181000
383000
787000
DCE000
FDC000
FB8000
070000
0E8100
1DC700
7BCF00
77EF80
E7FF80
E7DF80
C30C00
ENDCHAR
STARTCHAR guilsinglleft
ENCODING 8249
SWIDTH 322 0
DWIDTH 6 0
BBX 6 9 0 0
BITMAP
08
0C
1C
78
F0
E0
F0
78
18
ENDCHAR
STARTCHAR guilsinglright
ENCODING 8250
SWIDTH 341 0
DWIDTH 7 0
BBX 6 9 0 0
BITMAP
80
E0
70
38
1C
3C
70
E0
C0
ENDCHAR
STARTCHAR fraction
ENCODING 8260
SWIDTH 541 0
DWIDTH 11 0
BBX 11 15 0 0
BITMAP
0040
0060
00E0
01C0
0380
0380
0700
0E00
1C00
3800
7800
7000
E000
E000
E000
ENDCHAR
STARTCHAR Euro
ENCODING 8364
SWIDTH 565 0
DWIDTH 11 0
BBX 11 12 0 0
BITMAP
00C0
03E0
0FC0
1F80
3E00
3C00
FF80
FF80
7000
3FC0
1FC0
0780
ENDCHAR
STARTCHAR Delta
ENCODING 8710
SWIDTH 403 0
DWIDTH 8 0
BBX 12 12 -1 0
BITMAP
1FE0
1FF0
1F80
0700
0700
0600
0E00
0E00
0C00
1E00
FF00
7F00
ENDCHAR
STARTCHAR minus
ENCODING 8722
SWIDTH 548 0
DWIDTH 11 0
BBX 10 3 0 4
BITMAP
3F80
FFC0
FFC0
ENDCHAR
STARTCHAR approxequal
ENCODING 8776
SWIDTH 323 0
DWIDTH 6 0
BBX 5 15 1 0
BITMAP
10
30
70
70
78
70
F0
F0
F0
E0
E0
E0
E0
E0
60
ENDCHAR
STARTCHAR fi
ENCODING 64257
SWIDTH 810 0
DWIDTH 16 0
BBX 15 12 0 0
BITMAP
03E4
3FFE
7F8E
780E
380E
381C
FF9C
FF9C
F81C
E01C
E01C
600C
ENDCHAR
STARTCHAR fl
ENCODING 64258
SWIDTH 1012 0
DWIDTH 20 0
BBX 20 12 0 0
BITMAP
03E600
3FFE00
7F8E00
780E00
381C00
381C00
FFBC00
FFB800
F83800
E03FE0
E03FF0
601FE0
ENDCHAR
STARTCHAR .notdef
ENCODING -1
SWIDTH 370 0
DWIDTH 7 0
BBX 1 1 0 0
BITMAP
00
ENDCHAR
ENDFONT
